<svg xmlns="http://www.w3.org/2000/svg" fill="none" viewBox="0 0 24 24" id="Va-Vatican-City-State--Streamline-Flagpack" height="24" width="24">
  <desc>
    VA Vatican City State Streamline Icon: https://streamlinehq.com
  </desc>
  <path fill="#f7fcff" fill-rule="evenodd" d="M0 3h24v18H0V3Z" clip-rule="evenodd" stroke-width="0.75"></path>
  <path fill="#ffdc17" fill-rule="evenodd" d="M0 3h10.5v18H0V3Z" clip-rule="evenodd" stroke-width="0.75"></path>
  <path fill="#af0100" d="m17.0865 12.564 -0.25875 0.0165c0.0615 0.8895 0.25275000000000003 1.5764999999999998 0.5775 2.061 0.522 0.7822499999999999 1.2120000000000002 1.38675 1.6740000000000002 1.38675 0.10500000000000001 0 0.129 0.039 0.0945 0.135 -0.04875 0.1365 -0.20475000000000002 0.27075 -0.405 0.3225 -0.33225 0.0855 -1.08975 0.1305 -2.2575 0.1305v0.25125000000000003c1.191 0 1.9620000000000002 -0.045 2.325 -0.13874999999999998 0.28125 -0.07275000000000001 0.50475 -0.26625 0.58275 -0.483 0.09 -0.25125000000000003 -0.04575 -0.46875 -0.33975 -0.46875 -0.34275 0 -0.97875 -0.558 -1.4565 -1.272 -0.29700000000000004 -0.44399999999999995 -0.477 -1.09125 -0.53625 -1.941Zm-1.22625 0 0.25875 0.0165c-0.0615 0.8895 -0.25275000000000003 1.5764999999999998 -0.5775 2.061 -0.5227499999999999 0.7822499999999999 -1.21275 1.38675 -1.6740000000000002 1.38675 -0.10500000000000001 0 -0.12974999999999998 0.039 -0.09525 0.135 0.0495 0.1365 0.20550000000000002 0.27075 0.405 0.3225 0.333 0.0855 1.08975 0.1305 2.2582500000000003 0.1305v0.25125000000000003c-1.1917499999999999 0 -1.9620000000000002 -0.045 -2.325 -0.13874999999999998 -0.28125 -0.07275000000000001 -0.50475 -0.26625 -0.58275 -0.483 -0.09 -0.25125000000000003 0.04575 -0.46875 0.33975 -0.46875 0.34275 0 0.97875 -0.558 1.4565 -1.272 0.29700000000000004 -0.44399999999999995 0.477 -1.09125 0.53625 -1.941Z" stroke-width="0.75"></path>
  <path fill="#f4b300" fill-rule="evenodd" d="m21.05025 8.0985 -6.8557500000000005 5.3445a2.508 2.508 0 0 0 -0.7755000000000001 -0.12075c-1.11225 0 -2.043 0.7102499999999999 -2.043 1.6327500000000001s0.9299999999999999 1.6320000000000001 2.043 1.6320000000000001c0.1275 0 0.25275000000000003 -0.009000000000000001 0.375 -0.026999999999999996a0.7184999999999999 0.7184999999999999 0 0 1 -0.23925000000000002 -0.315c-0.05025 -0.14024999999999999 -0.03 -0.27 0.0495 -0.35775 -0.06 0.006 -0.12225 0.00975 -0.18525 0.00975 -0.75 0 -1.32975 -0.4425 -1.32975 -0.942 0 -0.5002500000000001 0.579 -0.942 1.32975 -0.942 0.75 0 1.32975 0.4425 1.32975 0.942 0 0.153 -0.05399999999999999 0.30000000000000004 -0.15075 0.43124999999999997a3.285 3.285 0 0 0 0.05474999999999999 -0.05025c0.23775000000000002 -0.22125 -0.29625 0.6915 -0.7575000000000001 0.6915 -0.10500000000000001 0 -0.12974999999999998 0.039 -0.09525 0.135 0.04575 0.12825 0.18525 0.255 0.3675 0.31275 0.7515000000000001 -0.2355 1.2945 -0.8160000000000001 1.2945 -1.52025 0 -0.28800000000000003 -0.09 -0.5549999999999999 -0.24975000000000003 -0.7875000000000001l3.68475 -3.1275 0.2475 0.255 0.177 -0.1605 0.615 0.45599999999999996 -0.25725000000000003 0.19875 0.5249999999999999 0.63825 1.0605 -0.8175000000000001 0.018000000000000002 -0.009000000000000001 -0.003 -0.0022500000000000003 0.06525 -0.05025 -0.5249999999999999 -0.63825 -0.25425000000000003 0.195 -0.6885 -0.47550000000000003 0.081 -0.07275000000000001 -0.22125 -0.22875 0.333 -0.28275 0.17625 0.18225 0.18975 -0.17250000000000001 0.597 0.47250000000000003 -0.2505 0.1935 0.5249999999999999 0.639 0.9075 -0.6997500000000001 0.10500000000000001 -0.056999999999999995 -0.01575 -0.012 0.14325 -0.11024999999999999 -0.5249999999999999 -0.639 -0.29700000000000004 0.22875 -0.65325 -0.501 0.0885 -0.081 -0.15150000000000002 -0.156 0.67875 -0.5760000000000001 -0.53775 -0.6585Z" clip-rule="evenodd" stroke-width="0.75"></path>
  <path fill="#bfbfbf" fill-rule="evenodd" d="M11.76525 14.0445c0.1965 0 0.35624999999999996 -0.12675 0.35624999999999996 -0.28275s-0.15975 -0.28275 -0.35624999999999996 -0.28275c-0.19725 0 -0.357 0.12675 -0.357 0.28275s0.15975 0.28275 0.357 0.28275Zm0.12974999999999998 2.574c0.1965 0 0.35624999999999996 -0.12675 0.35624999999999996 -0.28275s-0.15975 -0.28200000000000003 -0.35624999999999996 -0.28200000000000003c-0.19725 0 -0.357 0.126 -0.357 0.28275 0 0.15525 0.15975 0.28200000000000003 0.357 0.28200000000000003Zm3.53475 -0.28275c0 0.15675 -0.15975 0.28275 -0.357 0.28275 -0.1965 0 -0.35624999999999996 -0.12675 -0.35624999999999996 -0.28275s0.15975 -0.28200000000000003 0.35624999999999996 -0.28200000000000003c0.19725 0 0.357 0.126 0.357 0.28275Zm2.10825 -1.38075c0 -0.41475000000000006 0.1875 -0.786 0.49575 -1.0702500000000001l-3.9375 -3.04875 -0.04425 0.0345 0.11474999999999999 0.10425000000000001 -0.3105 0.321 -0.1635 -0.14850000000000002 -0.6022500000000001 0.46425 0.23025 0.17775 -0.5249999999999999 0.63825 -1.04925 -0.8085 -0.029249999999999998 -0.018000000000000002 0.00375 -0.0015 -0.066 -0.051000000000000004 0.5249999999999999 -0.63825 0.255 0.195 0.6877500000000001 -0.47550000000000003 -0.081 -0.07275000000000001 0.29775 -0.3075 -0.34650000000000003 -0.26849999999999996 -0.24 0.2475 -0.18225 -0.1665 -0.58875 0.47775 0.23625000000000002 0.1815 -0.5249999999999999 0.639 -0.87975 -0.678 -0.13274999999999998 -0.07875 0.015 -0.012 -0.14325 -0.11024999999999999 0.5249999999999999 -0.639 0.29700000000000004 0.22875 0.65325 -0.501 -0.0885 -0.08025 0.18 -0.186 -0.7072499999999999 -0.54675 0.44625 -0.53925 6.81075 5.27475a2.48025 2.48025 0 0 1 0.9119999999999999 -0.17025c1.11225 0 2.043 0.7102499999999999 2.043 1.6327500000000001s-0.9299999999999999 1.6327500000000001 -2.043 1.6327500000000001c-0.1275 0 -0.25275000000000003 -0.00975 -0.37424999999999997 -0.027749999999999997a0.7184999999999999 0.7184999999999999 0 0 0 0.2385 -0.315c0.05025 -0.14024999999999999 0.03 -0.27 -0.04875 -0.35775a1.6500000000000001 1.6500000000000001 0 0 0 0.1845 0.00975c0.75 0 1.32975 -0.4425 1.32975 -0.942 0 -0.5002500000000001 -0.579 -0.942 -1.32975 -0.942 -0.75 0 -1.32975 0.4425 -1.32975 0.942 0 0.153 0.05399999999999999 0.30000000000000004 0.15075 0.43124999999999997a3.612 3.612 0 0 1 -0.05474999999999999 -0.05025c-0.237 -0.22049999999999997 0.29625 0.6915 0.7582499999999999 0.6915 0.10500000000000001 0 0.129 0.039 0.0945 0.135 -0.04575 0.12825 -0.18525 0.255 -0.3675 0.31275 -0.7515000000000001 -0.2355 -1.2945 -0.8160000000000001 -1.2945 -1.52025Z" clip-rule="evenodd" stroke-width="0.75"></path>
  <path fill="#f4b300" fill-rule="evenodd" d="M21.235500000000002 14.0445c-0.19725 0 -0.357 -0.12675 -0.357 -0.28275s0.15975 -0.28275 0.357 -0.28275c0.1965 0 0.35624999999999996 0.12675 0.35624999999999996 0.28275s-0.15975 0.28275 -0.35624999999999996 0.28275Zm-0.12974999999999998 2.574c-0.19725 0 -0.357 -0.12675 -0.357 -0.28275s0.15975 -0.28200000000000003 0.357 -0.28200000000000003c0.1965 0 0.35624999999999996 0.126 0.35624999999999996 0.28275 0 0.15525 -0.15975 0.28200000000000003 -0.35624999999999996 0.28200000000000003Zm-3.5355000000000003 -0.28275c0 0.15675 0.15975 0.28275 0.357 0.28275s0.357 -0.12675 0.357 -0.28275 -0.15975 -0.28200000000000003 -0.357 -0.28200000000000003 -0.357 0.126 -0.357 0.28275Z" clip-rule="evenodd" stroke-width="0.75"></path>
  <path fill="#af0100" fill-rule="evenodd" d="M16.305 11.84625a0.0975 0.0975 0 0 0 -0.09675 0.0975v0.405h-0.36a0.0945 0.0945 0 1 0 0 0.18825h0.36v5.3655c0 0.05399999999999999 0.043500000000000004 0.0975 0.0975 0.0975H16.5a0.0975 0.0975 0 0 0 0.09675 -0.0975v-5.3655h0.5549999999999999a0.0945 0.0945 0 1 0 0 -0.1875h-0.5549999999999999v-0.405a0.0975 0.0975 0 0 0 -0.0975 -0.0975h-0.195Z" clip-rule="evenodd" stroke-width="0.75"></path>
  <path fill="#979797" fill-rule="evenodd" d="m12.56625 8.6955 0.15825 0.10874999999999999c0.3705 -0.5055000000000001 0.7035 -0.60675 1.0425 -0.34125 0.58425 0.4575 0.6345 1.5750000000000002 0.009000000000000001 1.9485 -0.7455 0.44625 -1.1235 1.3155000000000001 -0.79275 1.7887499999999998 0.30524999999999997 0.43724999999999997 1.041 0.27149999999999996 1.767 -0.27749999999999997a4.3575 4.3575 0 0 0 0.3675 -0.30974999999999997l-0.15375 -0.1185a4.1625 4.1625 0 0 1 -0.33375 0.28049999999999997c-0.64725 0.489 -1.2697500000000002 0.62925 -1.4857500000000001 0.32025 -0.258 -0.369 0.07200000000000001 -1.1272499999999999 0.73425 -1.52325 0.74925 -0.4485 0.6915 -1.722 0.00975 -2.2560000000000002 -0.4395 -0.3435 -0.89475 -0.20475000000000002 -1.32225 0.3795Zm2.856 2.28825 0.1575 0.10949999999999999c0.276 -0.37124999999999997 0.46425 -0.774 0.5265 -1.17l-0.19275 -0.028499999999999998c-0.056999999999999995 0.36524999999999996 -0.23249999999999998 0.74025 -0.49125 1.089Zm5.03025 -2.28825 -0.159 0.10874999999999999c-0.3705 -0.5055000000000001 -0.70275 -0.60675 -1.04175 -0.34125 -0.585 0.4575 -0.63525 1.5750000000000002 -0.00975 1.9485 0.7455 0.44625 1.1235 1.3155000000000001 0.79275 1.7887499999999998 -0.30524999999999997 0.43724999999999997 -1.041 0.27149999999999996 -1.767 -0.27749999999999997a4.3694999999999995 4.3694999999999995 0 0 1 -0.3675 -0.30974999999999997l0.15375 -0.1185c0.10500000000000001 0.09825 0.21675 0.192 0.33375 0.28049999999999997 0.64725 0.489 1.2697500000000002 0.62925 1.4857500000000001 0.32025 0.258 -0.369 -0.07200000000000001 -1.1272499999999999 -0.73425 -1.52325 -0.74925 -0.4485 -0.6915 -1.722 -0.00975 -2.2560000000000002 0.4395 -0.3435 0.89475 -0.20475000000000002 1.323 0.3795Zm-2.856 2.28825 -0.159 0.10949999999999999c-0.27525 -0.37124999999999997 -0.4635 -0.774 -0.5249999999999999 -1.17l0.192 -0.028499999999999998c0.056999999999999995 0.36524999999999996 0.23249999999999998 0.74025 0.492 1.089Z" clip-rule="evenodd" stroke-width="0.75"></path>
  <path fill="#af0100" fill-rule="evenodd" d="M16.4025 18.01275c0.21525 0 0.39 -0.08700000000000001 0.39 -0.195 0 -0.10724999999999998 -0.17475000000000002 -0.19425 -0.39 -0.19425 -0.21449999999999997 0 -0.3885 0.08700000000000001 -0.3885 0.195 0 0.10724999999999998 0.17400000000000002 0.19425 0.3885 0.19425Zm-0.0645 -8.097750000000001c0.7522499999999999 0 1.362 -0.10200000000000001 1.362 -0.22725 0 -0.12525 -0.60975 -0.22725 -1.362 -0.22725 -0.7522499999999999 0 -1.362 0.10200000000000001 -1.362 0.22725 0 0.12525 0.60975 0.22725 1.362 0.22725Z" clip-rule="evenodd" stroke-width="0.75"></path>
  <path fill="#f4b300" fill-rule="evenodd" d="M16.4145 4.529249999999999h-0.195v0.22425h-0.18375v0.1875h0.1845v0.5505h0.195v-0.54975h0.22425v-0.18825h-0.22499999999999998v-0.22499999999999998Zm-1.4625 2.7135 -0.08775000000000001 -0.14625c0.048 -0.02025 0.09675 -0.039 0.14625 -0.056999999999999995l-0.2535 -0.5549999999999999 0.17775 -0.07575000000000001 0.261 0.5715c0.055499999999999994 -0.01575 0.11174999999999999 -0.03 0.16875 -0.04425a0.26475 0.26475 0 0 1 -0.0645 -0.17550000000000002c0 -0.13874999999999998 0.10200000000000001 -0.25125000000000003 0.22725 -0.25125000000000003 0.12525 0 0.22725 0.11249999999999999 0.22725 0.25125000000000003a0.27749999999999997 0.27749999999999997 0 0 1 -0.0225 0.10949999999999999 4.6575 4.6575 0 0 1 0.48225 -0.037500000000000006v-0.21375h-0.24375000000000002v-0.15150000000000002h0.24375000000000002v-0.18h0.258v0.18h0.29700000000000004v0.15150000000000002h-0.29700000000000004v0.21149999999999997c0.19125 0.00375 0.36975 0.0165 0.5369999999999999 0.03975a0.273 0.273 0 0 1 -0.0225 -0.10949999999999999c0 -0.13874999999999998 0.10125 -0.25125000000000003 0.22649999999999998 -0.25125000000000003 0.126 0 0.22725 0.11249999999999999 0.22725 0.25125000000000003 0 0.07125000000000001 -0.026250000000000002 0.135 -0.06975 0.18075 0.07275000000000001 0.0195 0.14250000000000002 0.0405 0.21000000000000002 0.0645l0.186 -0.40875000000000006 0.17775 0.07575000000000001 -0.1845 0.405 0.04275 0.021 -0.0975 0.14175 -0.01575 -0.0075 -0.03 0.06525 -0.1785 -0.0765 0.03 -0.06375c-0.28500000000000003 -0.10200000000000001 -0.63 -0.15675 -1.03875 -0.16425v0.0675h-0.258v-0.066c-0.48450000000000004 0.015 -0.9052500000000001 0.0975 -1.263 0.2475Zm-0.08775000000000001 0.16725 0.045 0.0765 -0.15225 0.066 0.2535 0.5549999999999999a2.4525 2.4525 0 0 0 -0.14625 0.056249999999999994l0.08700000000000001 0.14625c0.35775 -0.15000000000000002 0.7785 -0.23249999999999998 1.263 -0.2475v0.066h0.258v-0.0675c0.40800000000000003 0.0075 0.7545 0.063 1.0379999999999998 0.165l-0.029249999999999998 0.06375 0.1785 0.07575000000000001 0.03 -0.06525 0.015 0.0075 0.09825 -0.14175a1.7775 1.7775 0 0 0 -0.04275 -0.02025l0.1845 -0.405 -0.17775 -0.0765 -0.18675 0.40875000000000006a2.5065 2.5065 0 0 0 -0.20925000000000002 -0.06375 0.264 0.264 0 0 0 0.06975 -0.1815c0 -0.138 -0.10125 -0.25125000000000003 -0.22725 -0.25125000000000003 -0.12525 0 -0.22649999999999998 0.11249999999999999 -0.22649999999999998 0.25125000000000003 0 0.03975 0.0075 0.07725 0.0225 0.11024999999999999a4.449 4.449 0 0 0 -0.5369999999999999 -0.0405v-0.21075000000000002h0.29700000000000004v-0.15150000000000002h-0.29700000000000004v-0.18075h-0.258v0.18h-0.24375000000000002v0.15225h0.24375000000000002v0.21225a4.7265 4.7265 0 0 0 -0.48225 0.03825 0.273 0.273 0 0 0 0.0225 -0.10949999999999999c0 -0.138 -0.10200000000000001 -0.25125000000000003 -0.22725 -0.25125000000000003 -0.12525 0 -0.22725 0.11249999999999999 -0.22725 0.25125000000000003 0 0.06825 0.02475 0.1305 0.0645 0.17625a3.43725 3.43725 0 0 0 -0.16875 0.043500000000000004l-0.22725 -0.498c0.393 -0.16125 0.86175 -0.24225000000000002 1.407 -0.24225000000000002 0.552 0 0.9945 0.0825 1.32975 0.2475l0.0975 -0.14250000000000002c-0.3675 -0.18 -0.84375 -0.26849999999999996 -1.42725 -0.26849999999999996 -0.5820000000000001 0 -1.0859999999999999 0.0885 -1.51125 0.26625Zm0 1.068 0.045 0.0765 -0.15225 0.06525 0.2535 0.5549999999999999a4.2225 4.2225 0 0 0 -0.14625 0.056249999999999994l0.08700000000000001 0.14625c0.35775 -0.15000000000000002 0.7785 -0.23249999999999998 1.263 -0.2475v0.066h0.258v-0.0675c0.40800000000000003 0.0075 0.7545 0.063 1.0379999999999998 0.165l-0.029249999999999998 0.06375 0.1785 0.07575000000000001 0.03 -0.06525 0.015 0.0075 0.09825 -0.14100000000000001a2.109 2.109 0 0 0 -0.04275 -0.021l0.1845 -0.405 -0.17775 -0.07575000000000001 -0.18675 0.40800000000000003a2.565 2.565 0 0 0 -0.20925000000000002 -0.06375 0.264 0.264 0 0 0 0.06975 -0.18075c0 -0.13874999999999998 -0.10125 -0.25125000000000003 -0.22725 -0.25125000000000003 -0.12525 0 -0.22649999999999998 0.11249999999999999 -0.22649999999999998 0.25125000000000003 0 0.039 0.0075 0.0765 0.0225 0.10949999999999999a4.433249999999999 4.433249999999999 0 0 0 -0.5369999999999999 -0.03975v-0.21149999999999997h0.29700000000000004v-0.15150000000000002h-0.29700000000000004v-0.18h-0.258v0.18h-0.24375000000000002v0.15150000000000002h0.24375000000000002v0.21299999999999997a4.7055 4.7055 0 0 0 -0.48225 0.037500000000000006 0.273 0.273 0 0 0 0.0225 -0.10874999999999999c0 -0.13874999999999998 -0.10200000000000001 -0.25125000000000003 -0.22725 -0.25125000000000003 -0.12525 0 -0.22725 0.11249999999999999 -0.22725 0.25125000000000003 0 0.0675 0.02475 0.12974999999999998 0.0645 0.17550000000000002a3.3555 3.3555 0 0 0 -0.16875 0.043500000000000004l-0.22725 -0.498c0.393 -0.16125 0.86175 -0.24225000000000002 1.407 -0.24225000000000002 0.552 0 0.9945 0.0825 1.32975 0.2475l0.0975 -0.14175c-0.3675 -0.18 -0.84375 -0.27 -1.42725 -0.27 -0.5820000000000001 0 -1.0859999999999999 0.09 -1.51125 0.26775Zm0 1.06725 0.08700000000000001 0.14625c0.39675000000000005 -0.1665 0.87075 -0.24975000000000003 1.42425 -0.24975000000000003 0.552 0 0.9945 0.0825 1.32975 0.2475l0.0975 -0.14175c-0.3675 -0.18 -0.84375 -0.26925 -1.42725 -0.26925 -0.5820000000000001 0 -1.0859999999999999 0.0885 -1.51125 0.267Z" clip-rule="evenodd" stroke-width="0.75"></path>
</svg>